<svg width="49" height="49" viewBox="0 0 49 49" fill="none" xmlns="http://www.w3.org/2000/svg">
<path d="M22.0287 8.91445L12.1287 18.8145H6.12866V30.8145H12.1287L22.0287 40.7145C23.8287 42.5145 27.1287 41.3145 27.1287 38.6145V11.0145C27.1287 8.31445 23.8287 7.11445 22.0287 8.91445ZM39.1287 9.81445L37.0287 11.9145C40.0287 15.2145 42.1287 19.7145 42.1287 24.8145C42.1287 29.9145 40.0287 34.4144 36.7287 37.4144L38.8287 39.5144C42.7287 35.6144 45.1287 30.5145 45.1287 24.5145C45.1287 18.8145 42.7287 13.7145 39.1287 9.81445ZM34.6287 14.3145L32.5287 16.4145C34.9287 18.5145 36.1287 21.5145 36.1287 24.8145C36.1287 28.1145 34.6287 31.1145 32.5287 33.2145L34.6287 35.3145C37.3287 32.6145 39.1287 29.0145 39.1287 24.8145C39.1287 20.6145 37.3287 17.0145 34.6287 14.3145Z" fill="white"/>
</svg>
