<svg width="30" height="30" viewBox="0 0 30 30" fill="none" xmlns="http://www.w3.org/2000/svg">
<g clip-path="url(#clip0_59_101)">
<path d="M25.3963 5.46222C23.4513 4.56943 21.3987 3.93278 19.2899 3.56822C19.2707 3.56465 19.2509 3.56721 19.2333 3.57553C19.2157 3.58386 19.2012 3.59753 19.1918 3.6146C18.928 4.08372 18.6359 4.6956 18.4314 5.17647C16.1255 4.83122 13.8314 4.83122 11.5729 5.17647C11.3684 4.68485 11.0656 4.08372 10.8008 3.6146C10.7909 3.59792 10.7763 3.58458 10.7588 3.57633C10.7413 3.56808 10.7217 3.5653 10.7026 3.56835C8.59361 3.93205 6.54087 4.56865 4.59613 5.4621C4.57949 5.46921 4.56547 5.4813 4.55601 5.49672C0.666755 11.3072 -0.398745 16.9748 0.124005 22.5722C0.125483 22.5859 0.129696 22.5992 0.136396 22.6112C0.143095 22.6233 0.152143 22.6339 0.163005 22.6423C2.729 24.5268 5.21463 25.6708 7.65413 26.4291C7.6731 26.4348 7.69334 26.4345 7.71215 26.4283C7.73097 26.4222 7.74744 26.4104 7.75938 26.3946C8.33638 25.6066 8.85075 24.7756 9.29188 23.9018C9.29794 23.8899 9.3014 23.8768 9.30204 23.8634C9.30267 23.85 9.30045 23.8366 9.29554 23.8241C9.29063 23.8116 9.28313 23.8003 9.27353 23.791C9.26394 23.7816 9.25247 23.7743 9.23988 23.7697C8.42388 23.4602 7.647 23.0828 6.89963 22.6543C6.886 22.6463 6.87455 22.6351 6.8663 22.6216C6.85804 22.6081 6.85323 22.5928 6.85229 22.5771C6.85135 22.5613 6.85431 22.5455 6.86091 22.5312C6.86751 22.5168 6.87755 22.5043 6.89013 22.4947C7.04738 22.3768 7.20475 22.2543 7.35488 22.1305C7.36822 22.1195 7.38437 22.1124 7.40151 22.1101C7.41865 22.1078 7.43609 22.1103 7.45188 22.1173C12.3616 24.359 17.6769 24.359 22.5286 22.1173C22.5444 22.1098 22.562 22.107 22.5794 22.1091C22.5968 22.1112 22.6132 22.1181 22.6268 22.1292C22.777 22.253 22.9343 22.3768 23.0928 22.4947C23.1054 22.5042 23.1155 22.5166 23.1222 22.5309C23.1288 22.5452 23.1319 22.5609 23.1311 22.5767C23.1303 22.5924 23.1256 22.6077 23.1175 22.6213C23.1094 22.6348 23.098 22.6461 23.0845 22.6542C22.3369 23.0909 21.5537 23.4636 20.7433 23.7685C20.7307 23.7733 20.7192 23.7807 20.7097 23.7902C20.7002 23.7998 20.6928 23.8112 20.688 23.8238C20.6832 23.8364 20.6811 23.8498 20.6819 23.8633C20.6826 23.8767 20.6862 23.8899 20.6924 23.9018C21.1429 24.7743 21.6573 25.6053 22.2236 26.3933C22.2352 26.4096 22.2516 26.4218 22.2705 26.4282C22.2894 26.4346 22.3098 26.4349 22.3289 26.4291C24.7801 25.6707 27.2658 24.5267 29.8318 22.6423C29.8428 22.6343 29.852 22.624 29.8588 22.6121C29.8655 22.6002 29.8696 22.587 29.8709 22.5733C30.4964 16.1021 28.8231 10.481 25.4353 5.49785C25.4269 5.48166 25.4131 5.46898 25.3963 5.4621V5.46222ZM10.025 19.164C8.54688 19.164 7.32888 17.8068 7.32888 16.1402C7.32888 14.4737 8.52325 13.1166 10.0251 13.1166C11.5386 13.1166 12.7448 14.4856 12.7211 16.1403C12.7211 17.8068 11.5268 19.164 10.025 19.164ZM19.9935 19.164C18.5154 19.164 17.2974 17.8068 17.2974 16.1402C17.2974 14.4737 18.4916 13.1166 19.9935 13.1166C21.507 13.1166 22.7131 14.4856 22.6895 16.1403C22.6895 17.8068 21.507 19.164 19.9935 19.164Z" fill="#FF0000"/>
</g>
<defs>
<clipPath id="clip0_59_101">
<rect width="30" height="30" fill="white"/>
</clipPath>
</defs>
</svg>
