<svg width="28" height="28" viewBox="0 0 28 28" fill="none" xmlns="http://www.w3.org/2000/svg">
<path d="M22.75 12.9849L6.41667 3.55828C6.23931 3.45588 6.03813 3.40198 5.83333 3.40198C5.62854 3.40198 5.42735 3.45588 5.25 3.55828C5.07196 3.66107 4.92424 3.80908 4.82181 3.98732C4.71937 4.16556 4.66585 4.3677 4.66667 4.57328V23.4266C4.66585 23.6322 4.71937 23.8343 4.82181 24.0126C4.92424 24.1908 5.07196 24.3388 5.25 24.4416C5.42735 24.544 5.62854 24.5979 5.83333 24.5979C6.03813 24.5979 6.23931 24.544 6.41667 24.4416L22.75 15.0149C22.9295 14.9132 23.0789 14.7656 23.1828 14.5873C23.2867 14.409 23.3414 14.2063 23.3414 13.9999C23.3414 13.7936 23.2867 13.5909 23.1828 13.4126C23.0789 13.2343 22.9295 13.0867 22.75 12.9849V12.9849ZM7 21.4083V6.59161L19.8333 13.9999L7 21.4083Z" fill="#FFFEFE"/>
</svg>
